#!OML:ASF H:\Terrain\Patient Classification 1\Walking\steve\steve.ASF
:FULLY-SPECIFIED
:DEGREES
247
root 9.75225 16.3374 29.1733 7.63264 -12.6504 -5.35467
lowerback -1.57351 5.37996 5.01264
upperback -3.2461 7.19521 1.35737
thorax -2.03359 3.50021 -1.37201
lowerneck -11.049 -1.8966 -2.90422
upperneck 17.8711 -2.5514 2.56349
head 7.37577 -1.18284 1.07304
rclavicle -4.23815e-015 -1.0138e-014
rhumerus -25.0031 15.3628 -85.8925
rradius 71.5093
rwrist -10.7653
rhand -28.1374 -37.4229
rfingers 7.12502
rthumb -1.51865 -67.3972
lclavicle -4.23815e-015 -1.0138e-014
lhumerus -62.2239 18.0673 60.0591
lradius 9.08366
lwrist -19.5616
lhand -17.7786 -9.94175
lfingers 7.12502
lthumb 8.48399 19.8678
rfemur 12.2474 3.03784 24.276
rtibia 20.6597
rfoot 0.270495 20.611
rtoes 5.5731
lfemur -38.1625 2.09794 -12.1961
ltibia 18.6931
lfoot -16.4653 6.48182
ltoes -9.64548
248
root 9.76032 16.3123 29.4303 7.54103 -12.6777 -5.34753
lowerback -3.39084 5.51785 5.25768
upperback -1.75111 7.18371 1.13138
thorax 0.580615 3.57019 -1.44779
lowerneck -12.3509 -2.13247 -2.72963
upperneck 16.7218 -2.91208 2.88695
head 7.24481 -1.30682 1.10269
rclavicle 3.07868e-014 9.34288e-015
rhumerus -22.6788 14.9258 -85.2805
rradius 71.8726
rwrist -10.4058
rhand -23.219 -37.2842
rfingers 7.12502
rthumb 3.23158 -67.2395
lclavicle 3.07868e-014 9.34288e-015
lhumerus -59.6978 19.1541 60.5717
lradius 8.17112
lwrist -20.1262
lhand -17.8071 -9.5608
lfingers 7.12502
lthumb 8.45648 20.2499
rfemur 12.3659 3.59176 24.2851
rtibia 21.9905
rfoot 1.29944 19.8705
rtoes 5.17294
lfemur -38.4983 2.27522 -12.4542
ltibia 20.5495
lfoot -14.0019 7.3301
ltoes -4.61447
249
root 9.76738 16.301 29.6906 7.39317 -12.647 -4.95325
lowerback -3.2947 5.48982 4.71328
upperback -1.74406 7.17138 0.914129
thorax 0.496667 3.56527 -1.38516
lowerneck -12.8533 -2.25599 -3.12219
upperneck 16.9237 -3.13614 3.63231
head 7.4247 -1.36487 1.38402
rclavicle -4.06421e-015 -1.54555e-014
rhumerus -23.0534 14.5005 -85.4752
rradius 72.5614
rwrist -9.53101
rhand -24.98 -35.7738
rfingers 7.12502
rthumb 1.53088 -65.748
lclavicle -4.06421e-015 -1.54555e-014
lhumerus -59.532 19.1591 60.2854
lradius 7.85219
lwrist -20.6035
lhand -17.8408 -9.14787
lfingers 7.12502
lthumb 8.42399 20.6641
rfemur 12.4148 4.17529 23.9624
rtibia 23.3436
rfoot 2.50781 18.8608
rtoes 3.81439
lfemur -39.083 2.16133 -12.9326
ltibia 22.7687
lfoot -11.5073 8.12348
ltoes 0.717714
250
root 9.77277 16.2952 29.9613 7.59468 -12.3175 -4.7879
lowerback -3.71111 5.37669 4.44083
upperback -1.77255 7.00696 0.729226
thorax 0.6804 3.48698 -1.39366
lowerneck -12.9215 -2.42508 -3.0827
upperneck 16.7479 -3.38584 3.71751
head 7.38935 -1.47424 1.37859
rclavicle 3.41649e-014 1.37037e-014
rhumerus -23.5705 14.1013 -85.8814
rradius 73.1301
rwrist -9.3688
rhand -25.1525 -36.0304
rfingers 7.12502
rthumb 1.36426 -66.0058
lclavicle 3.41649e-014 1.37037e-014
lhumerus -59.1795 19.332 60.0068
lradius 7.44907
lwrist -21.1765
lhand -17.774 -8.43645
lfingers 7.12502
lthumb 8.48848 21.3729
rfemur 12.059 4.89707 23.9584
rtibia 24.9736
rfoot 4.6069 17.2358
rtoes 5.03359
lfemur -40.0854 2.17694 -13.3232
ltibia 25.0093
lfoot -9.08853 8.50647
ltoes 2.64183
251
root 9.77447 16.3004 30.2393 7.66871 -12.0346 -4.21344
lowerback -4.05957 5.23906 3.68526
upperback -1.87537 6.83794 0.469703
thorax 0.703881 3.40442 -1.22958
lowerneck -13.3902 -2.37482 -2.88737
upperneck 17.3634 -3.37765 3.76848
head 7.67152 -1.44325 1.36065
rclavicle -1.23676e-013 -1.56046e-014
rhumerus -24.4247 13.9011 -86.3714
rradius 73.5628
rwrist -9.96876
rhand -23.8024 -37.3641
rfingers 7.12502
rthumb 2.6682 -67.3272
lclavicle -1.23676e-013 -1.56046e-014
lhumerus -58.8477 19.4786 59.7108
lradius 6.91444
lwrist -21.8826
lhand -16.9223 -7.53035
lfingers 7.12502
lthumb 9.31034 22.2441
rfemur 11.5499 5.23672 23.3415
rtibia 26.866
rfoot 7.14005 15.4508
rtoes 6.8678
lfemur -40.8839 2.30651 -14.276
ltibia 27.3323
lfoot -7.36042 8.3467
ltoes 0.753527
252
root 9.77136 16.2964 30.4996 7.53194 -11.851 -3.22206
lowerback -3.59882 5.09819 2.27002
upperback -2.34958 6.72721 0.19126
thorax -0.170924 3.34389 -0.824763
lowerneck -12.7766 -2.36522 -2.64506
upperneck 17.2214 -3.39088 3.59695
head 7.50904 -1.45821 1.26821
rclavicle 3.56213e-014 -1.89839e-014
rhumerus -25.9105 13.5459 -86.8031
rradius 73.9047
rwrist -9.89388
rhand -25.8871 -37.0961
rfingers 7.12502
rthumb 0.654782 -67.0748
lclavicle 3.56213e-014 -1.89839e-014
lhumerus -58.8761 19.3573 59.3738
lradius 6.30132
lwrist -22.7682
lhand -16.196 -6.81798
lfingers 7.12502
lthumb 10.0111 22.9239
rfemur 10.8778 5.33994 22.2639
rtibia 29.0386
rfoot 9.8671 13.1826
rtoes 8.18416
lfemur -41.4803 2.60148 -15.8063
ltibia 29.7341
lfoot -6.45239 7.411
ltoes 1.57076
